<?xml version="1.0" encoding="utf-8"?>
<!-- Generator: Adobe Illustrator 16.0.1, SVG Export Plug-In . SVG Version: 6.00 Build 0)  -->
<!DOCTYPE svg PUBLIC "-//W3C//DTD SVG 1.1//EN" "http://www.w3.org/Graphics/SVG/1.1/DTD/svg11.dtd">
<svg version="1.1" id="Layer_1" xmlns="http://www.w3.org/2000/svg" xmlns:xlink="http://www.w3.org/1999/xlink" x="0px" y="0px"
	 width="768px" height="768px" viewBox="0 0 768 768" enable-background="new 0 0 768 768" xml:space="preserve">
<g>
	<path fill="#878787" d="M563.2,492.8L454.4,368l108.8-80V492.8z M563.2,508.8L563.2,508.8L563.2,508.8z M220.8,508.8l112-128
		l51.2,38.4l51.2-38.4l112,128H220.8L220.8,508.8z M204.8,508.8L204.8,508.8z M204.8,288l108.8,80L204.8,492.8V288z M553.6,259.2
		L384,384L214.4,259.2H553.6z M384,0C172.8,0,0,172.8,0,384s172.8,384,384,384s384-172.8,384-384S595.2,0,384,0"/>
</g>
</svg>
