<?xml version="1.0" encoding="utf-8"?>
<!-- Generator: Adobe Illustrator 16.0.1, SVG Export Plug-In . SVG Version: 6.00 Build 0)  -->
<!DOCTYPE svg PUBLIC "-//W3C//DTD SVG 1.1//EN" "http://www.w3.org/Graphics/SVG/1.1/DTD/svg11.dtd">
<svg version="1.1" id="Layer_1" xmlns="http://www.w3.org/2000/svg" xmlns:xlink="http://www.w3.org/1999/xlink" x="0px" y="0px"
	 width="768px" height="768px" viewBox="0 0 768 768" enable-background="new 0 0 768 768" xml:space="preserve">
<g>
	<path fill="#868686" d="M521.6,310.4c0,3.197,0,6.397,0,9.6c0,96-73.6,208-204.8,208c-41.6,0-76.8-12.8-108.8-32c6.4,0,12.8,0,16,0
		c32,0,64-12.8,89.6-32c-32,0-57.6-22.4-67.2-51.2c3.2,0,9.6,0,12.8,0c6.4,0,12.8,0,19.2-3.2c-32-6.397-57.6-35.197-57.6-70.397l0,0
		c9.6,6.397,19.2,9.6,32,9.6c-19.2-12.8-32-35.2-32-60.8c0-12.8,3.2-25.602,9.6-35.2c35.2,44.8,89.6,73.603,147.2,76.8
		c0-6.397-3.197-9.6-3.197-16c0-41.6,32-73.6,70.397-73.6c19.2,0,38.4,9.6,51.2,22.398c16-3.198,32-9.6,44.8-19.198
		c-6.397,16-16,32-32,41.6c16-3.2,28.8-6.397,41.603-12.8C550.4,288,537.6,300.8,521.6,310.4 M384,0C172.8,0,0,172.8,0,384
		s172.8,384,384,384s384-172.8,384-384S595.2,0,384,0"/>
</g>
</svg>
